<?xml version="1.0" encoding="UTF-8" standalone="no"?>
<svg
   xmlns:dc="http://purl.org/dc/elements/1.1/"
   xmlns:cc="http://creativecommons.org/ns#"
   xmlns:rdf="http://www.w3.org/1999/02/22-rdf-syntax-ns#"
   xmlns:svg="http://www.w3.org/2000/svg"
   xmlns="http://www.w3.org/2000/svg"
   xmlns:sodipodi="http://sodipodi.sourceforge.net/DTD/sodipodi-0.dtd"
   xmlns:inkscape="http://www.inkscape.org/namespaces/inkscape"
   inkscape:export-ydpi="43.40073"
   inkscape:export-xdpi="43.40073"
   inkscape:export-filename="C:\Users\aleja\OneDrive\Escritorio\react\cmm-covid19\public\favicon.png"
   sodipodi:docname="logo.svg"
   inkscape:version="1.0beta1 (fe3e306, 2019-09-17)"
   id="svg8"
   version="1.1"
   viewBox="0 0 37.955593 35.349552"
   height="35.349552mm"
   width="37.955593mm">
  <defs
     id="defs2" />
  <sodipodi:namedview
     fit-margin-bottom="0"
     fit-margin-right="0"
     fit-margin-left="0"
     fit-margin-top="0"
     inkscape:window-maximized="1"
     inkscape:window-y="-11"
     inkscape:window-x="-11"
     inkscape:window-height="986"
     inkscape:window-width="1920"
     showgrid="false"
     inkscape:document-rotation="0"
     inkscape:current-layer="layer1"
     inkscape:document-units="mm"
     inkscape:cy="79.195825"
     inkscape:cx="49.012532"
     inkscape:zoom="3.959798"
     inkscape:pageshadow="2"
     inkscape:pageopacity="0.0"
     borderopacity="1.0"
     bordercolor="#666666"
     pagecolor="#ffffff"
     id="base" />
  <metadata
     id="metadata5">
    <rdf:RDF>
      <cc:Work
         rdf:about="">
        <dc:format>image/svg+xml</dc:format>
        <dc:type
           rdf:resource="http://purl.org/dc/dcmitype/StillImage" />
        <dc:title />
      </cc:Work>
    </rdf:RDF>
  </metadata>
  <g
     transform="translate(-66.247749,-38.78586)"
     id="layer1"
     inkscape:groupmode="layer"
     inkscape:label="Capa 1">
    <path
       inkscape:connector-curvature="0"
       transform="scale(0.26458333)"
       d="m 333.72852,147.53711 a 13.203275,13.203275 0 0 0 -13.20313,13.20312 13.203275,13.203275 0 0 0 6.39258,11.3086 l -2.35156,8.77344 a 36.071431,36.071431 0 0 0 -2.78125,-0.10743 36.071431,36.071431 0 0 0 -22.03125,7.51172 l -8.40821,-8.4082 a 13.203275,13.203275 0 0 0 1.54297,-6.19922 13.203275,13.203275 0 0 0 -13.20312,-13.20312 13.203275,13.203275 0 0 0 -13.20313,13.20312 13.203275,13.203275 0 0 0 13.20313,13.20313 13.203275,13.203275 0 0 0 5.86328,-1.3711 l 8.39844,8.39649 a 36.071431,36.071431 0 0 0 -8.23243,22.9375 36.071431,36.071431 0 0 0 0.21289,3.90625 l -9.58984,2.57031 a 13.203275,13.203275 0 0 0 -11.80469,-7.28711 13.203275,13.203275 0 0 0 -13.20312,13.20312 13.203275,13.203275 0 0 0 13.20312,13.20313 13.203275,13.203275 0 0 0 13.03321,-11.08203 l 10.13281,-2.71485 a 36.071431,36.071431 0 0 0 14.06445,18.20704 l -3.75781,6.50586 a 13.203275,13.203275 0 0 0 -3.41992,-0.45118 13.203275,13.203275 0 0 0 -13.20313,13.20313 13.203275,13.203275 0 0 0 13.20313,13.20312 13.203275,13.203275 0 0 0 13.20312,-13.20312 13.203275,13.203275 0 0 0 -2.98633,-8.36133 l 4.15235,-7.18945 a 36.071431,36.071431 0 0 0 12.83008,2.35937 36.071431,36.071431 0 0 0 22.0957,-7.56054 l 7.3457,7.3457 a 13.203275,13.203275 0 0 0 -1.91211,6.83984 13.203275,13.203275 0 0 0 13.20313,13.20313 13.203275,13.203275 0 0 0 13.20508,-13.20313 13.203275,13.203275 0 0 0 -13.20508,-13.20312 13.203275,13.203275 0 0 0 -5.16992,1.05468 l -7.67383,-7.67187 a 36.071431,36.071431 0 0 0 8.18359,-22.87695 36.071431,36.071431 0 0 0 -0.18554,-3.63868 l 11.30273,-3.02734 a 13.203275,13.203275 0 0 0 10.7168,5.49414 13.203275,13.203275 0 0 0 13.20312,-13.20312 13.203275,13.203275 0 0 0 -13.20312,-13.20508 13.203275,13.203275 0 0 0 -13.20313,13.20508 13.203275,13.203275 0 0 0 0,0.008 l -10.5293,2.82226 A 36.071431,36.071431 0 0 0 332.52344,182.3498 l 2.26367,-8.44922 a 13.203275,13.203275 0 0 0 12.14453,-13.16016 13.203275,13.203275 0 0 0 -13.20312,-13.20312 z"
       style="fill:#001ad4;fill-opacity:1;stroke:none;stroke-width:1.88976;stroke-miterlimit:4;stroke-dasharray:none"
       id="path833" />
    <path
       transform="rotate(-3.3610193,95.498358,61.540549)"
       inkscape:transform-center-y="-0.16417889"
       inkscape:transform-center-x="0.38310688"
       d="m 89.575246,60.910584 -3.719965,-1.261476 -3.148078,2.349267 0.0502,-3.927713 -3.207096,-2.268037 3.750992,-1.165985 1.165984,-3.750991 2.268037,3.207096 3.927714,-0.0502 -2.349268,3.148078 z"
       inkscape:randomized="0"
       inkscape:rounded="0"
       inkscape:flatsided="false"
       sodipodi:arg2="1.4137167"
       sodipodi:arg1="0.78539816"
       sodipodi:r2="2.9575655"
       sodipodi:r1="5.9151311"
       sodipodi:cy="56.727955"
       sodipodi:cx="85.392616"
       sodipodi:sides="5"
       id="path901"
       style="fill:#ffffff;fill-opacity:1;stroke:#ffffff;stroke-width:0.1"
       sodipodi:type="star" />
    <path
       sodipodi:nodetypes="ccccccccccccccccccccccccccc"
       inkscape:connector-curvature="0"
       id="path903"
       style="fill:#ff0202;fill-opacity:1;stroke:none;stroke-width:3.02362209;stroke-miterlimit:4;stroke-dasharray:none"
       d="m 301.76367,246.79102 -3.75781,6.50586 c -1.11534,-0.2993 -2.26512,-0.45099 -3.41992,-0.45118 -7.29185,8e-5 -13.20305,5.91128 -13.20313,13.20313 9e-5,7.29185 5.91128,13.20304 13.20313,13.20312 7.29185,-9e-5 13.20303,-5.91127 13.20312,-13.20312 -4e-4,-3.04828 -1.05553,-6.00252 -2.98633,-8.36133 l 4.15235,-7.18945 c 4.09776,1.55968 8.44554,2.35921 12.83008,2.35937 7.99984,-2.9e-4 15.77262,-2.65992 22.0957,-7.56054 l 7.3457,7.3457 c -1.25011,2.06252 -1.91141,4.42805 -1.91211,6.83984 8e-5,7.29185 5.91128,13.20305 13.20313,13.20313 7.29262,0.001 13.205,-5.91051 13.20508,-13.20313 -9e-5,-7.29261 -5.91247,-13.20412 -13.20508,-13.20312 -1.77672,1.3e-4 -3.53513,0.35885 -5.16992,1.05468 l -7.67383,-7.67187 c 5.29126,-6.44986 8.18328,-14.5344 8.18359,-22.87695 -5.1e-4,-1.21524 -0.0624,-2.42969 -0.18554,-3.63868 l 11.30273,-3.02734 c 2.48039,3.44879 6.46869,5.49345 10.7168,5.49414 7.29185,-9e-5 13.20303,-5.91127 13.20312,-13.20312 0.001,-7.29261 -5.91051,-13.20499 -13.20312,-13.20508 -7.29262,8e-5 -13.20413,5.91246 -13.20313,13.20508 v 0.008 l -10.5293,2.82226 c -27.86507,24.83785 -94.3576,13.40432 -54.19531,41.55079 z"
       transform="scale(0.26458333)" />
    <path
       id="rect841"
       style="fill:#ffffff;fill-opacity:1;stroke:none;stroke-width:0.799999;stroke-opacity:1"
       d="m 76.606013,61.221857 c 1.618062,-2.909704 12.209494,-5.825136 17.574799,-6.918663 0.343777,0.495297 0.432552,0.990594 0.331097,1.485891 -11.173028,3.087416 -14.615758,4.214236 -17.882273,6.378349 -0.138629,-0.236329 -0.314078,-0.64795 -0.02362,-0.945577 z"
       inkscape:connector-curvature="0"
       sodipodi:nodetypes="cccccc" />
  </g>
</svg>
